<?xml version='1.0' encoding='utf-8'?>
<svg xmlns="http://www.w3.org/2000/svg" viewBox="0 0 192 192" width="192" height="192"><rect width="192" height="192" fill="#081E36" /><svg width="149.9603" height="60.3356" viewBox="0 0 500 201" fill="none" x="22.8397" y="65.6880">
<g clip-path="url(#clip0_28_1310)">
<path d="M316.615 106.321C293.888 107.105 279.781 111.285 279.781 126.175C279.781 135.841 287.618 146.29 307.21 146.29C333.595 146.29 347.44 131.922 347.44 108.411V105.799C338.297 105.799 326.803 106.06 316.615 106.321ZM372.519 137.408C372.519 144.723 372.78 151.776 373.302 158.307H350.053C349.53 153.082 349.269 147.596 349.269 142.633C336.73 158.046 321.578 162.487 300.941 162.487C269.854 162.487 253.396 146.29 253.396 127.22C253.396 99.7906 275.863 90.3862 314.786 89.3413C325.497 89.08 337.514 89.08 347.44 89.08V86.4677C347.44 68.1814 335.685 60.6056 315.309 60.6056C300.157 60.6056 289.185 66.8752 287.879 77.5858H261.495C264.368 50.6788 292.581 43.8867 317.399 43.8867C347.179 43.8867 372.258 54.5973 372.258 85.9452V137.408H372.519Z" fill="#F5AF02" />
<path d="M99.791 92.999C98.7461 69.488 82.0272 60.8673 63.7409 60.8673C44.4096 60.6061 28.7356 70.533 26.1233 92.999H99.791ZM25.6008 109.718C26.907 132.445 42.581 146.029 64.2633 146.029C79.1536 146.029 92.4765 140.021 96.9175 126.698H122.78C117.555 153.344 89.0805 162.487 64.5246 162.487C19.8537 162.487 0 137.931 0 104.754C0 68.1819 20.3762 44.1484 64.7858 44.1484C100.052 44.1484 126.176 62.696 126.176 102.926V109.718H25.6008Z" fill="#E53238" />
<path d="M190.439 145.246C213.688 145.246 229.624 128.527 229.624 103.187C229.624 77.8474 213.688 61.1285 190.439 61.1285C167.189 61.1285 151.254 77.8474 151.254 103.187C151.254 128.527 167.189 145.246 190.439 145.246ZM126.175 0H151.254V62.9572C163.532 48.3281 180.512 44.1484 197.231 44.1484C225.183 44.1484 256.269 62.9572 256.269 103.71C256.269 137.67 231.713 162.487 196.969 162.487C178.683 162.487 161.703 155.956 150.992 143.156C150.992 148.38 150.731 153.605 150.209 158.568H125.392C125.914 150.731 126.175 140.805 126.175 132.706V0Z" fill="#0064D2" />
<path d="M500 48.3281L422.414 200.627H394.462L416.667 158.307L358.412 48.3281H387.67L430.512 134.274L473.355 48.3281H500Z" fill="#86B817" />
</g>
<defs>
<clipPath id="clip0_28_1310">
<rect width="500" height="200.366" fill="white" />
</clipPath>
</defs>
</svg></svg>