<?xml version='1.0' encoding='utf-8'?>
<svg xmlns="http://www.w3.org/2000/svg" viewBox="0 0 192 192" width="192" height="192"><rect width="192" height="192" fill="#D52B1E" /><svg viewBox="-1.44097 -1.40112 38.2969 37.8303" fill="none" x="43.4511" y="43.9665" width="105.3048" height="104.0708">
<g clip-path="url(#clip0_13449_14100)">
<path d="M25.7355 0H9.59617C4.29635 0 0 4.25602 0 9.50609V25.4939C0 30.744 4.29635 35 9.59617 35H25.7355C31.0353 35 35.3317 30.744 35.3317 25.4939V9.50609C35.3317 4.25602 31.0353 0 25.7355 0Z" fill="#D52B1E" />
<path d="M30.5815 32.1627C26.6951 28.848 22.1097 26.9453 17.9877 26.9453C13.605 26.9453 8.37775 29.0257 4.66116 32.2468L3.82568 33.0765C5.43295 34.2786 7.42695 35.0003 9.59579 35.0003H25.7351C27.9031 35.0003 29.8967 34.2794 31.5036 33.0782L30.5815 32.1631V32.1627Z" fill="#FFFFFF" />
<path d="M4.76013 2.84333C7.87185 5.4611 12.8918 8.22896 17.784 8.22896C21.911 8.22896 26.7324 6.18605 30.6804 2.76374L31.5193 1.93363C29.9099 0.725369 27.9105 0 25.7354 0H9.5961C7.42934 0 5.43659 0.720009 3.83057 1.92002L4.76054 2.84292L4.76013 2.84333Z" fill="#FFFFFF" />
<path d="M1.93697 31.2041L2.86237 30.2882C6.36123 26.2444 8.44889 21.4712 8.44889 17.502C8.4081 15.4319 7.96392 13.389 7.14051 11.4855C8.21994 12.1131 9.34349 12.6628 10.5024 13.1309C10.8991 14.5552 11.1056 16.0245 11.1164 17.502C11.1164 20.8773 9.97832 24.0238 8.60958 26.5904C11.5319 25.1665 14.7314 24.3867 17.988 24.3042C21.581 24.3042 25.4387 25.5289 28.9904 27.7356C29.7177 28.2032 30.4303 28.6939 31.1201 29.2317C31.1201 29.2317 32.0642 29.9612 32.57 30.4007L33.3893 31.2119C34.6036 29.6197 35.3321 27.6436 35.3321 25.4943V9.50648C35.3321 7.36666 34.6098 5.3988 33.4051 3.80992L32.4851 4.72086C28.9858 8.76503 26.8936 13.5333 26.8936 17.502C26.9419 19.5829 27.3994 21.6345 28.2394 23.5421C27.1533 22.9054 26.0198 22.3503 24.8492 21.8823C24.4513 20.4551 24.2427 18.9825 24.2306 17.502C24.3089 14.3944 25.1327 11.3498 26.6342 8.61946C23.8955 10.0265 20.8695 10.7989 17.7849 10.8776C13.0955 10.8776 8.36897 8.72709 4.91714 6.31015C4.68111 6.14191 4.44966 5.96912 4.22237 5.79139C4.22237 5.79139 3.27865 5.0623 2.7737 4.62271L1.93822 3.7959C0.726831 5.38685 0 7.36006 0 9.50648V25.4943C0 27.6403 0.726415 29.6131 1.93697 31.2041ZM13.836 13.7135C13.836 13.7135 15.6356 15.2377 17.6708 15.2377C19.6349 15.2377 21.5052 13.714 21.5052 13.714C21.5052 13.714 19.9608 15.4905 19.9608 17.5053C19.9608 19.5202 21.5052 21.3013 21.5052 21.3013C21.5052 21.3013 19.7056 19.7771 17.6708 19.7771C15.7064 19.7771 13.836 21.3008 13.836 21.3008C13.836 21.3008 15.3754 19.5198 15.3754 17.5049C15.3754 15.4901 13.836 13.7135 13.836 13.7135Z" fill="#FFFFFF" />
</g>
<defs>
<clipPath id="clip0_13449_14100">
<rect width="168" height="35" fill="white" />
</clipPath>
</defs>
</svg></svg>