<?xml version='1.0' encoding='utf-8'?>
<svg xmlns="http://www.w3.org/2000/svg" xmlns:ns1="http://www.serif.com/" viewBox="0 0 192 192" width="192" height="192"><rect width="192" height="192" fill="#FFFFFF" /><svg width="111.3944" height="111.3944" viewBox="0 0 12500 12500" version="1.1" xml:space="preserve" fill-rule="evenodd" clip-rule="evenodd" stroke-linejoin="round" stroke-miterlimit="2" fill="#000000" x="45.6030" y="38.4750"><g id="Layer-1" ns1:id="Layer 1"><path d="M8580.73,3008.16c383.538,572.513 407.338,1824.82 -265.6,3112.59c-671.854,1287.49 -1743.21,2079.93 -2473.15,2133.09c-400.642,-554.266 -410.617,-1825.66 260.104,-3113.44c672.929,-1286.64 1764.24,-2051.43 2478.65,-2132.24" fill-rule="nonzero" /><path d="M2280.87,43.928c1101.84,474.821 2299.91,2475.87 2503.58,5354.08c203.092,2877.65 -643.583,5422.48 -1678.45,6369.85c-1102.35,-428.296 -2302.12,-2474.8 -2506.35,-5353.23c-200.833,-2875.72 700.638,-5398.96 1681.23,-6370.7" fill-rule="nonzero" /><path d="M12034.5,8297.53c-952.992,-435.267 -2967.36,-353.325 -4986.15,606.8c-2018.79,957.908 -3211.87,2372.96 -3237.37,3299.65l0,1.079c919.771,451.016 2968.99,354.171 4987.79,-604.871c2016.01,-958.196 3163.2,-2396.99 3235.73,-3302.65" fill-rule="nonzero" /></g></svg></svg>