<?xml version='1.0' encoding='utf-8'?>
<svg xmlns="http://www.w3.org/2000/svg" viewBox="0 0 192 192" width="192" height="192"><rect width="192" height="192" fill="#1B1B1B" /><svg version="1.2" viewBox="0 0 1524 1358" width="104.4075" height="92.9879" x="43.7455" y="51.2211">
	<title>tsc-logo-svg</title>
	<path id="Layer" d="m415 1358l-415-1357.8h1523.8l-278.4 1074.5-830.4 283.3z" fill="#d20000" stroke="#333333" stroke-width="0" />
	<path id="Layer" fill-rule="evenodd" d="m790.7 185.5h66v198.3h-92.3v-29.6c0-80.4-86.3-78.1-76.1-18 4.6 25.9 62.7 117.4 112.6 216.3 133.9 265.2-58.6 434.8-166.2 312.8l-18 25h-60.5v-216.3h95.6v54.1c-4.6 78.5 163.9 92.4 24.9-160.4q-13.6-22-26.2-44.6-12.7-22.5-24.2-45.7-11.6-23.1-22-46.8-10.5-23.6-19.9-47.7c-48.9-141.5 50.8-203.8 116.3-202 6.4-0.2 12.9 0.2 19.2 1.2 6.4 1.1 12.6 2.8 18.6 5.1 6 2.3 11.8 5.2 17.2 8.6 5.5 3.5 10.5 7.4 15.2 11.9zm437.6 622.5v67c0 122.5-80.8 184.9-144 184.9-95.1 0-182.4-52.7-174.1-409 9.7-411.8 225.8-323.5 230.8-297.2l17.6-22.2h65.5v196.4h-92.3v-35.5c-7.4-93.4-110.3-92.5-105.7 168.2 3.7 199.2 7.8 277.3 66.9 277.3 38.8 0 38.8-52.3 38.8-52.3v-77.6zm-1028.4-755.1h334.2v189.9h-81.8v-61.9h-26.3v468.1l29.6 18.1v92.4h-178.7v-92.4l29.6-18.1v-468.1h-25.4v61.9h-81.2z" fill="#ffffff" stroke="#333333" stroke-width="0" />
</svg></svg>