<svg preserveAspectRatio="none" overflow="visible" style="display: block;" width="188.5" height="141.028" viewBox="0 0 188.5 141.028" fill="none" xmlns="http://www.w3.org/2000/svg">
<path id="Vector 476" d="M25.1351 93.1628L21.4853 89.5129C12.767 80.7946 8.4078 76.4354 4.7039 77.9696C1 79.5039 1 85.6686 1 97.9982V128.028C1 133.685 1 136.513 2.75736 138.27C4.51472 140.028 7.34315 140.028 13 140.028H175.5C181.157 140.028 183.985 140.028 185.743 138.27C187.5 136.513 187.5 133.685 187.5 128.028V23.1556C187.5 10.212 187.5 3.74017 184.765 1.96622C183.762 1.31544 182.587 0.979313 181.391 1.00099C178.132 1.06007 174.709 6.5526 167.863 17.5377L167.863 17.538C167.06 18.826 166.659 19.4701 166.123 19.9862C165.911 20.1904 165.685 20.3788 165.445 20.5497C164.84 20.9817 164.133 21.2583 162.719 21.8114L159.491 23.0747C157.033 24.0364 155.804 24.5172 154.907 25.4284C154.01 26.3397 153.547 27.5757 152.623 30.0477L140.278 63.0725C138.503 67.8188 137.616 70.1919 136.184 71.2497C134.602 72.4174 132.549 72.7363 130.688 72.1034C129.002 71.5301 127.437 69.5379 124.306 65.5535C122.252 62.9394 121.225 61.6324 119.977 61.0285C118.595 60.3597 117.009 60.2463 115.545 60.7118C114.224 61.1321 113.022 62.2798 110.617 64.5753L107.682 67.3767C102.333 72.4824 99.6588 75.0352 96.6853 74.5259C93.7119 74.0167 92.0393 70.7195 88.6943 64.125L87.3072 61.3904C83.3612 53.6111 81.3882 49.7214 78.0497 49.4439C74.7113 49.1664 72.1231 52.6768 66.9466 59.6977L43.279 91.7986C39.4301 97.0191 37.5056 99.6292 34.76 99.8357C32.0144 100.042 29.7213 97.749 25.1351 93.1628Z" stroke="#FF6495" stroke-width="2"/>
</svg>
